<?xml version="1.0" encoding="utf-8"?>
<!-- Generator: Adobe Illustrator 16.0.0, SVG Export Plug-In . SVG Version: 6.00 Build 0)  -->
<!DOCTYPE svg PUBLIC "-//W3C//DTD SVG 1.1//EN" "http://www.w3.org/Graphics/SVG/1.1/DTD/svg11.dtd">
<svg version="1.1" id="Layer_1" xmlns="http://www.w3.org/2000/svg" xmlns:xlink="http://www.w3.org/1999/xlink" x="0px" y="0px"
	 width="335px" height="400px" viewBox="0 0 335 400" enable-background="new 0 0 335 400" xml:space="preserve">
<g>
	<path fill="none" stroke="#6B7BB7" stroke-width="14.3638" stroke-miterlimit="10" d="M270.48,211.505h37.585
		c9.519,0,17.236,7.717,17.236,17.236v145.793c0,9.52-7.718,17.236-17.236,17.236H28.688c-9.521,0-17.237-7.717-17.237-17.236
		V228.741c0-9.52,7.716-17.236,17.237-17.236h43.09"/>
	<path fill="#FFFFFF" stroke="#6B7BB7" stroke-width="14.3638" stroke-miterlimit="10" d="M270.48,211.505"/>
	<path fill="#FFFFFF" stroke="#6B7BB7" stroke-width="14.3638" stroke-miterlimit="10" d="M71.778,211.505"/>
	<circle fill="none" stroke="#6B7BB6" stroke-width="14.3638" stroke-miterlimit="10" cx="170.172" cy="143.995" r="122.093"/>
	<circle fill="#6B7BB7" cx="173.404" cy="143.995" r="17.168"/>
	<path fill="none" stroke="#6B7BB6" stroke-width="14.3638" stroke-miterlimit="10" d="M57.193,97.646
		c-56.514-49.171,39.005-120.99,68.223-67.28"/>
	<path fill="none" stroke="#6B7BB7" stroke-width="12.9274" stroke-miterlimit="10" d="M280.741,97.646
		c56.515-49.171-39.005-120.99-68.224-67.28"/>
	<g>
		<path fill="#6B7BB7" stroke="#6B7BB7" stroke-width="1.4364" stroke-miterlimit="10" d="M45.587,351.807
			c-0.592-0.296-0.887-0.74-0.887-1.332c0-0.296,0.098-0.617,0.294-0.962c0.2-0.346,0.592-0.518,1.184-0.518
			c0.592,0.098,1.456-0.42,2.59-1.554c1.136-1.134,2.39-2.588,3.773-4.364c1.38-1.774,2.833-3.721,4.364-5.844
			c1.527-2.119,2.933-4.165,4.217-6.139c1.28-1.973,2.366-3.699,3.255-5.179c0.887-1.48,1.479-2.465,1.774-2.959h-0.147
			l5.622-11.393c-3.551-1.873-7.201-3.721-10.949-5.548c-3.748-1.824-7.396-3.477-10.947-4.956
			c-3.552-1.479-6.955-2.663-10.209-3.551c-3.254-0.887-6.214-1.332-8.876-1.332c-0.492,0-1.035,0.074-1.627,0.223
			c-0.592,0.147-1.134,0.322-1.627,0.518l-2.219,0.74c-1.184,0-1.776-0.493-1.776-1.48c0-0.393,0.294-0.762,0.886-1.109
			c0.592-0.344,1.31-0.665,2.146-0.961c0.839-0.297,1.652-0.519,2.441-0.666c0.792-0.148,1.431-0.223,1.925-0.223
			c2.564,0,5.546,0.444,8.949,1.332c3.403,0.888,6.98,2.023,10.727,3.402c3.747,1.383,7.568,2.959,11.466,4.734
			c3.895,1.775,7.716,3.602,11.466,5.475l10.209-21.453l1.627-3.254H85.09c1.38-2.959,2.833-5.893,4.364-8.803
			c1.527-2.909,3.278-5.793,5.251-8.656c0.394-0.393,0.837-0.591,1.331-0.591c1.086,0,2.047,0.37,2.886,1.11
			c0.837,0.738,1.553,1.627,2.145,2.662c0.592,1.035,1.11,2.146,1.554,3.328c0.443,1.184,0.813,2.271,1.11,3.256h-0.147
			c0.491,0.986,0.763,1.504,0.813,1.553c0.048,0.051,0.022,0.074-0.074,0.074c2.464,6.905,4.364,13.98,5.696,21.231
			c1.331,7.249,2.441,14.523,3.327,21.821l2.368,17.31l-0.149-0.147c0.592,1.283,1.233,3.059,1.924,5.326
			c0.689,2.269,1.306,4.661,1.849,7.175c0.542,2.516,0.984,4.957,1.333,7.325c0.344,2.366,0.516,4.289,0.516,5.769
			c0,0.689-0.198,1.207-0.59,1.553c-0.396,0.346-0.84,0.52-1.331,0.52c-0.791,0-1.627-1.136-2.517-3.402
			c-0.886-2.271-1.725-4.936-2.514-7.99c-0.792-3.059-1.48-6.091-2.072-9.099c-0.592-3.008-0.938-5.201-1.037-6.584
			c-1.974-2.859-4.511-5.449-7.618-7.767c-3.107-2.316-6.239-4.365-9.394-6.141h0.147l-3.107-1.775l-5.474-3.106h0.148l-11.097-6.51
			l-5.917,11.539c-0.297,0.496-0.94,1.531-1.925,3.107c-0.986,1.579-2.145,3.403-3.476,5.474c-1.333,2.071-2.789,4.217-4.366,6.437
			c-1.578,2.219-3.18,4.265-4.808,6.14c-1.627,1.873-3.156,3.402-4.586,4.586c-1.429,1.184-2.686,1.775-3.771,1.775L45.587,351.807z
			 M76.212,309.938l17.311,9.616c0.491,0.199,0.936,0.444,1.33,0.739c0.395,0.297,0.837,0.543,1.333,0.74
			c2.564,1.579,5.078,3.107,7.545,4.587c2.464,1.479,4.684,3.157,6.657,5.03c-1.087-8.678-2.366-17.211-3.846-25.596
			c-1.48-8.382-3.403-16.766-5.77-25.15c0-0.098-0.074-0.297-0.221-0.592c-0.149-0.297-0.323-0.689-0.52-1.184
			c-0.494-1.184-1.06-2.664-1.701-4.439c-0.643-1.774-1.208-3.007-1.702-3.697c-1.381,1.974-2.663,4.142-3.846,6.509
			c-1.184,2.368-2.319,4.735-3.403,7.103h-0.148l-2.219,4.586L76.212,309.938z"/>
		<path fill="#6B7BB7" stroke="#6B7BB7" stroke-width="1.4364" stroke-miterlimit="10" d="M121.483,336.716
			c-0.984,0-1.48-0.492-1.48-1.479c0-0.689,0.272-1.158,0.814-1.406c0.542-0.244,1.059-0.467,1.554-0.665
			c0.294-0.097,0.592-0.196,0.887-0.296c0.297-0.097,0.541-0.196,0.741-0.296h-0.149l0.592-0.592
			c-0.886-4.339-1.479-8.776-1.776-13.315c-0.294-4.535-0.443-8.629-0.443-12.279v-4.29v-1.776c0-1.479,0.075-3.377,0.222-5.695
			c0.149-2.316,0.345-4.709,0.592-7.176c0.245-2.463,0.592-4.758,1.035-6.88c0.445-2.119,1.011-3.722,1.703-4.808l0.592-0.889v0.148
			c0.683-0.888,1.392-1.824,2.124-2.811c0.732-0.985,1.491-1.479,2.272-1.479c0.684,0.099,1.659,0.665,2.932,1.699
			c1.268,1.036,2.247,1.949,2.932,2.738c0.878,1.183,1.658,2.565,2.342,4.143c0.685,1.579,1.246,3.231,1.687,4.956
			c0.439,1.728,0.78,3.453,1.027,5.178c0.244,1.728,0.367,3.329,0.367,4.809c0,3.354-0.381,6.683-1.141,9.985
			c-0.76,3.307-1.797,6.562-3.106,9.766c-1.313,3.206-2.806,6.361-4.483,9.469c-1.678,3.106-3.401,6.14-5.178,9.099
			c0.888,4.638,2.316,9.025,4.292,13.168h-0.149c0.789,1.38,2.072,3.056,3.846,5.029v-0.148l2.072,2.515
			c0.097,0.099,0.147,0.298,0.147,0.592c0,0.494-0.051,0.89-0.147,1.185c-0.1,0.297-0.495,0.444-1.183,0.444
			c-0.396,0-0.94-0.347-1.628-1.036c-0.691-0.69-1.406-1.479-2.145-2.367c-0.74-0.888-1.456-1.801-2.146-2.737
			c-0.69-0.938-1.182-1.651-1.479-2.145v0.147c-0.987-1.678-1.826-3.453-2.515-5.325c-0.691-1.873-1.432-4.044-2.22-6.511
			l-1.183,0.444c-0.592,0.198-1.013,0.347-1.258,0.444c-0.247,0.1-0.468,0.198-0.665,0.296L121.483,336.716z M126.366,302.54
			c-0.101,0.987-0.148,2.071-0.148,3.255s0,2.367,0,3.551c0,2.959,0.073,6.092,0.222,9.395c0.148,3.306,0.467,6.535,0.962,9.69
			c1.279-2.464,2.564-5.128,3.847-7.989c1.281-2.859,2.44-5.793,3.476-8.803c1.037-3.007,1.874-6.041,2.517-9.099
			c0.64-3.056,0.961-6.015,0.961-8.877c0-3.352-0.543-6.533-1.627-9.542c-1.087-3.008-2.911-5.794-5.475-8.359
			c-1.085,1.678-1.921,3.551-2.514,5.622c-0.592,2.071-1.062,4.216-1.405,6.436c-0.348,2.22-0.569,4.464-0.667,6.731
			c-0.1,2.27-0.147,4.439-0.147,6.51V302.54z"/>
		<path fill="#6B7BB7" stroke="#6B7BB7" stroke-width="1.4364" stroke-miterlimit="10" d="M157.285,329.17
			c0,0.692-0.174,1.136-0.518,1.332c-0.346,0.199-0.617,0.296-0.813,0.296c-0.79,0-1.431-0.344-1.923-1.035h0.149
			c-0.297-0.296-0.617-0.566-0.962-0.813c-0.348-0.245-0.766-0.37-1.257-0.37c-0.988,0-2.049,0.222-3.181,0.666
			c-1.136,0.443-2.197,1.013-3.182,1.701c-0.988,0.69-1.801,1.455-2.441,2.292c-0.642,0.84-0.962,1.653-0.962,2.441
			c0,0.296,0.246,0.444,0.741,0.444c1.083,0,2.145-0.123,3.18-0.37c1.037-0.245,2.047-0.518,3.034-0.813
			c0.788-0.197,1.526-0.394,2.219-0.592c0.688-0.197,1.33-0.296,1.921-0.296c1.973,0,3.131,0.494,3.478,1.479
			c0.344,0.986,0.567,2.219,0.666,3.699c0,0.69,0.048,1.382,0.147,2.071c0.097,0.69,0.296,1.282,0.592,1.774
			c0.196,0.2,0.296,0.544,0.296,1.036s-0.148,0.888-0.443,1.184c-0.297,0.296-0.592,0.444-0.888,0.444
			c-0.888,0-1.479-0.47-1.775-1.406c-0.296-0.937-0.543-1.946-0.739-3.032c-0.199-0.789-0.371-1.577-0.519-2.367
			c-0.147-0.789-0.421-1.185-0.814-1.185c-0.494,0-1.159,0.125-1.998,0.37c-0.838,0.247-1.652,0.519-2.44,0.814
			c-1.085,0.395-2.17,0.717-3.254,0.961c-1.086,0.248-2.171,0.37-3.254,0.37c-1.184,0-2.219-0.271-3.108-0.813
			c-0.886-0.541-1.33-1.702-1.33-3.478c0-1.38,0.443-2.711,1.33-3.994c0.89-1.28,1.998-2.44,3.33-3.477
			c1.331-1.035,2.786-1.85,4.366-2.441c1.575-0.591,3.105-0.888,4.585-0.888c1.281,0,2.441,0.273,3.478,0.813
			c1.035,0.544,1.798,1.506,2.292,2.886V329.17z"/>
		<path fill="#6B7BB7" stroke="#6B7BB7" stroke-width="1.4364" stroke-miterlimit="10" d="M159.504,326.951
			c0-0.788,0.047-1.281,0.148-1.479c0.096-0.197,0.443-0.297,1.035-0.297c0.789,0,1.528,0.569,2.219,1.702
			c0.688,1.135,1.28,2.344,1.776,3.624c0.887-1.774,2.145-3.524,3.771-5.252c1.627-1.725,3.672-3.377,6.141-4.957
			c0.295,0,0.592,0.148,0.887,0.444s0.443,0.591,0.443,0.888c0,0.495,0.048,0.74,0.148,0.74c-3.254,2.762-5.525,5.525-6.806,8.285
			c-1.284,2.762-1.923,5.573-1.923,8.433c0,0.495,0,0.913,0,1.258c0,0.347,0.047,0.766,0.148,1.258
			c0.096,0.494,0.171,0.986,0.222,1.479c0.048,0.496,0.073,1.036,0.073,1.628c0,0.689-0.223,1.258-0.666,1.701
			c-0.442,0.444-0.912,0.666-1.404,0.666c-0.396,0-0.814-0.124-1.258-0.37c-0.443-0.247-0.718-0.617-0.814-1.109l-0.739-5.475
			c-0.396-2.268-0.813-4.561-1.257-6.88c-0.445-2.315-1.111-4.265-1.998-5.843L159.504,326.951z"/>
		<path fill="#6B7BB7" stroke="#6B7BB7" stroke-width="1.4364" stroke-miterlimit="10" d="M175.332,325.62
			c0-0.098-0.023-0.171-0.074-0.223c-0.047-0.048-0.074-0.122-0.074-0.222c0-0.788,0.545-1.184,1.629-1.184
			c0.592,0,1.206,0.322,1.849,0.962c0.642,0.643,1.206,1.431,1.702,2.367c0.492,0.938,0.962,1.924,1.405,2.959
			c0.442,1.036,0.813,1.997,1.109,2.885c0.985-1.577,2.294-3.203,3.921-4.882c1.627-1.677,3.277-2.516,4.956-2.516
			c0.984,0,1.798,0.247,2.44,0.739c0.64,0.496,1.111,1.161,1.406,1.998c0.297,0.84,0.494,1.753,0.592,2.737
			c0.098,0.986,0.196,1.923,0.295,2.811c0,0.494-0.025,0.739-0.074,0.739c-0.05,0-0.024,0.199,0.074,0.592
			c0.195-0.196,0.468-0.393,0.816-0.592c0.342-0.196,0.613-0.393,0.812-0.591c1.378-0.985,2.441-1.725,3.18-2.22
			c0.74-0.492,1.405-0.739,1.996-0.739c0.592,0,1.207,0.69,1.852,2.07c0.641,1.383,0.96,3.699,0.96,6.954
			c0,0.495-0.174,0.84-0.517,1.036c-0.348,0.198-0.668,0.296-0.962,0.296c-0.69,0-1.161-0.468-1.405-1.406
			c-0.247-0.936-0.42-1.946-0.519-3.033c-0.099-0.688-0.124-1.133-0.073-1.331c0.048-0.196,0.022-0.492-0.073-0.888
			c-0.889,0.691-1.655,1.356-2.294,1.997c-0.643,0.643-1.21,1.209-1.701,1.702c-0.592,0.592-1.088,0.986-1.48,1.183
			c-0.396,0.199-0.984,0.296-1.773,0.296c-1.089,0-1.754-0.518-1.998-1.554c-0.25-1.035-0.42-2.292-0.519-3.772
			c-0.099-0.984-0.222-1.872-0.37-2.662c-0.148-0.789-0.422-1.38-0.812-1.775c-1.088,0.296-2.023,0.962-2.812,1.997
			c-0.79,1.035-1.479,2.219-2.07,3.55c-0.592,1.332-1.109,2.715-1.553,4.144c-0.445,1.431-0.767,2.64-0.963,3.625
			c0,0.393-0.246,0.592-0.739,0.592l0.147-0.148c-0.296,0.196-0.643,0.393-1.035,0.592c-0.199,0.097-0.347,0.148-0.443,0.148
			c-1.088,0-1.68-0.644-1.775-1.924c0-3.155-0.273-6.14-0.814-8.951c-0.543-2.811-1.9-5.399-4.069-7.767L175.332,325.62z"/>
		<path fill="#6B7BB7" stroke="#6B7BB7" stroke-width="1.4364" stroke-miterlimit="10" d="M213.943,323.4
			c-0.393,0.396-0.789,0.592-1.182,0.592c-0.297,0-0.813-0.443-1.555-1.332c-0.74-0.887-1.11-1.479-1.11-1.774
			c0-0.493,0.196-1.036,0.592-1.628c0.393-0.592,0.985-0.888,1.776-0.888c0.297,0,0.763,0.247,1.405,0.739
			c0.64,0.496,0.962,0.988,0.962,1.48c0,0.296-0.199,0.839-0.592,1.627c0,0.1-0.025,0.199-0.072,0.296
			c-0.054,0.1-0.076,0.198-0.076,0.296l-0.148,0.297V323.4z M210.688,329.318c-0.294-0.097-0.442-0.492-0.442-1.184
			c0-0.984,0.541-1.479,1.627-1.479c0.592,0,1.086,0.272,1.48,0.814c0.393,0.543,0.738,1.183,1.035,1.923
			c0.295,0.74,0.491,1.505,0.593,2.293c0.095,0.791,0.146,1.479,0.146,2.071c0,1.383-0.123,2.885-0.367,4.513
			c-0.25,1.627-0.545,3.133-0.89,4.512c-0.349,1.381-0.716,2.538-1.108,3.478c-0.396,0.936-0.74,1.404-1.038,1.404
			c-0.788,0-1.257-0.346-1.405-1.034c-0.146-0.691-0.222-1.431-0.222-2.22c0-1.972,0.075-3.87,0.222-5.696
			c0.148-1.823,0.32-3.722,0.52-5.696v0.148c0-0.196,0.021-0.319,0.072-0.37c0.051-0.049,0.076-0.122,0.076-0.222
			c0-0.197,0.047-0.345,0.146-0.443v-1.035c0-0.297-0.025-0.615-0.073-0.962C211.008,329.788,210.885,329.518,210.688,329.318z"/>
		<path fill="#6B7BB7" stroke="#6B7BB7" stroke-width="1.4364" stroke-miterlimit="10" d="M218.974,327.987
			c-0.295-0.097-0.443-0.444-0.443-1.036c0-0.492,0.171-0.888,0.517-1.184c0.345-0.295,0.666-0.443,0.962-0.443
			c0.788,0,1.48,0.369,2.073,1.109c0.592,0.74,1.082,1.679,1.479,2.812c0.393,1.135,0.715,2.343,0.961,3.624
			c0.244,1.282,0.467,2.467,0.666,3.551c0,0.592,0.098,1.184,0.294,1.775c0.494-0.492,0.912-1.059,1.26-1.702
			c0.346-0.64,0.713-1.306,1.108-1.997c0.788-1.38,1.652-2.612,2.59-3.698c0.937-1.084,2.193-1.628,3.773-1.628
			c1.279,0,2.39,0.248,3.327,0.74c0.937,0.495,1.702,1.136,2.294,1.924c0.592,0.79,1.083,1.678,1.479,2.662
			c0.393,0.987,0.788,1.924,1.185,2.812c0,0.199,0.047,0.839,0.148,1.924c0.095,1.086,0.148,1.826,0.148,2.219
			c0.096-0.393,0.343-0.566,0.738-0.518c0.393,0.051,0.592,0.272,0.592,0.666c0,0.887-0.396,1.331-1.184,1.331
			c-1.086,0-1.922-0.492-2.515-1.479c-0.592-0.984-1.136-2.021-1.627-3.107c-0.496-1.084-1.061-2.168-1.703-3.255
			c-0.642-1.084-1.455-1.627-2.439-1.627c-0.792,0-1.555,0.444-2.292,1.331c-0.741,0.888-1.507,1.975-2.296,3.255
			c-0.592,0.988-1.257,1.949-1.997,2.886c-0.738,0.938-1.552,1.801-2.441,2.589c-1.085,0-1.946-0.222-2.589-0.665
			c-0.643-0.444-1.108-1.036-1.406-1.776c-0.294-0.739-0.492-1.602-0.591-2.589c-0.099-0.984-0.146-2.021-0.146-3.107
			c-0.101-1.479-0.222-2.907-0.37-4.289c-0.148-1.381-0.617-2.417-1.405-3.107H218.974z"/>
		<path fill="#6B7BB7" stroke="#6B7BB7" stroke-width="1.4364" stroke-miterlimit="10" d="M267.499,327.691
			c0,0.691-0.174,1.161-0.519,1.405c-0.346,0.248-0.665,0.37-0.963,0.37c-0.196,0-0.469-0.148-0.813-0.443
			c-0.345-0.296-0.617-0.593-0.813-0.889c-0.199-0.296-0.443-0.614-0.738-0.961c-0.297-0.345-0.643-0.519-1.038-0.519
			c-0.984,0-2.048,0.342-3.179,1.021c-1.136,0.683-2.219,1.559-3.257,2.629c-1.035,1.072-1.898,2.289-2.587,3.649
			c-0.692,1.365-1.037,2.678-1.037,3.944c0,0.592,0.051,1.109,0.148,1.554c0.099,0.443,0.493,0.665,1.184,0.665
			c1.38,0,3.007-0.344,4.882-1.035c0.889-0.296,1.775-0.592,2.665-0.888c0.887-0.296,1.871-0.444,2.957-0.444
			c1.38,0,2.786,0.592,4.217,1.776c1.428,1.183,2.76,2.736,3.994,4.66c1.231,1.924,2.295,4.067,3.182,6.435s1.577,4.784,2.07,7.251
			h1.481c0.491,0,1.453,0.097,2.884,0.296c1.429,0.196,2.935,0.467,4.511,0.813c1.577,0.344,2.96,0.813,4.145,1.405
			c1.184,0.591,1.775,1.331,1.775,2.22c-0.199,0.788-0.493,1.429-0.89,1.922c-0.294,0.492-0.689,0.912-1.181,1.257
			c-0.497,0.346-1.089,0.52-1.776,0.52c-0.889,0-1.332-0.495-1.332-1.48c0-0.494,0.123-0.864,0.37-1.109
			c0.244-0.247,0.566-0.518,0.962-0.813l0.443-0.295c-0.297-0.296-0.813-0.543-1.554-0.739c-0.738-0.199-1.605-0.349-2.59-0.445
			c-0.987-0.1-1.972-0.172-2.957-0.222c-0.986-0.052-1.924-0.074-2.811-0.074c-0.89,0-1.234,0.246-1.038,0.741
			c0,0.196,0.025,0.344,0.076,0.443c0.047,0.097,0.072,0.243,0.072,0.443c0,3.155-0.987,6.188-2.96,9.099
			c-1.972,2.908-4.438,5.522-7.395,7.841c-2.96,2.316-6.191,4.165-9.693,5.548c-3.501,1.381-6.828,2.07-9.984,2.07
			c-1.481,0-3.108-0.172-4.881-0.516c-1.776-0.349-3.454-0.888-5.033-1.627c-1.574-0.741-2.906-1.754-3.992-3.035
			c-1.086-1.283-1.627-2.81-1.627-4.585c0-1.184,0.418-2.345,1.257-3.477c0.839-1.136,1.849-2.196,3.033-3.181
			c1.183-0.987,2.393-1.851,3.624-2.59c1.234-0.74,2.196-1.309,2.884-1.703c4.735-2.563,9.592-4.609,14.574-6.138
			c4.979-1.531,10.134-2.393,15.461-2.589c-0.298-1.776-0.767-3.625-1.405-5.549c-0.643-1.924-1.384-3.698-2.22-5.326
			c-0.839-1.627-1.728-2.959-2.665-3.994c-0.937-1.036-1.849-1.554-2.735-1.554c-0.496,0-1.11,0.1-1.849,0.296
			c-0.74,0.199-1.554,0.444-2.443,0.739c-1.086,0.396-2.194,0.74-3.327,1.036c-1.137,0.296-2.296,0.444-3.477,0.444
			c-1.383,0-2.468-0.393-3.257-1.185c-0.788-0.788-1.184-2.219-1.184-4.29c0-1.775,0.421-3.551,1.26-5.326
			c0.836-1.774,1.896-3.377,3.181-4.809c1.28-1.429,2.71-2.589,4.29-3.477c1.576-0.888,3.156-1.331,4.732-1.331
			c2.368,0,3.995,1.331,4.885,3.994V327.691z M274.156,363.958c0-0.499,0.022-0.944,0.072-1.341
			c0.051-0.399,0.022-0.849-0.072-1.341c-4.343,0.294-8.978,1.065-13.906,2.308c-4.935,1.24-9.864,3.303-14.796,6.182h0.148
			c-0.592,0.395-1.355,0.893-2.295,1.489c-0.935,0.598-1.871,1.267-2.812,2.011c-0.934,0.744-1.748,1.512-2.44,2.31
			c-0.688,0.793-1.035,1.585-1.035,2.381c0,0.893,0.298,1.662,0.889,2.31c0.59,0.646,1.331,1.189,2.22,1.639
			c0.887,0.446,1.874,0.794,2.957,1.043c1.089,0.247,2.124,0.372,3.108,0.372c2.07,0,4.265-0.324,6.584-0.969
			c2.315-0.647,4.533-1.439,6.657-2.383c2.118-0.943,4.068-2.012,5.845-3.202c1.775-1.193,3.203-2.335,4.289-3.427
			c1.576-1.687,2.611-3.127,3.105-4.317c0.493-1.195,0.987-2.932,1.481-5.216V363.958z"/>
		<path fill="#6B7BB7" stroke="#6B7BB7" stroke-width="1.4364" stroke-miterlimit="10" d="M277.735,238.85
			c0-0.492,0.172-0.889,0.52-1.184c0.345-0.296,0.664-0.443,0.962-0.443c0.688,0,1.257,1.207,1.7,3.624
			c0.443,2.418,0.74,5.229,0.887,8.433c0.148,3.207-0.081,63.791-0.03,67.094c0.047,3.306,0.072,5.844,0.072,7.619
			c0,2.071-0.098,4.095-0.294,6.066c-0.199,1.974-0.643,2.958-1.333,2.958c-0.396,0-0.767-1.158-1.108-3.476
			c-0.348-2.317-0.668-5.079-0.962-8.285c-0.298-3.205-0.191-63.889-0.337-67.39c-0.149-3.5-0.224-6.437-0.224-8.804
			c0-1.084,0-2.145,0-3.181C277.588,240.847,277.638,239.836,277.735,238.85z M280.662,337.455c1.086,0,1.627,0.495,1.627,1.48
			c0,0.198-0.123,0.369-0.367,0.518c-0.25,0.147-0.421,0.321-0.52,0.518c0.099,0.199,0.196,0.347,0.298,0.443
			c0.095,0.1,0.146,0.248,0.146,0.444c0,0.691-0.396,1.234-1.184,1.627c-0.788,0.396-1.234,0.592-1.33,0.592
			c-0.693,0-1.209-0.244-1.554-0.739c-0.349-0.492-0.52-1.084-0.52-1.775c0-0.888,0.247-1.627,0.74-2.22
			C278.493,337.751,279.38,337.455,280.662,337.455z"/>
	</g>
	<circle fill="#FFFFFF" stroke="#6B7BB7" stroke-width="4.4801" stroke-miterlimit="10" cx="172.544" cy="41.511" r="3.808"/>
	<circle fill="#FFFFFF" stroke="#6B7BB7" stroke-width="4.2247" stroke-miterlimit="10" cx="276.105" cy="143.995" r="3.591"/>
	<circle fill="#FFFFFF" stroke="#6B7BB7" stroke-width="5.0619" stroke-miterlimit="10" cx="64.232" cy="143.27" r="4.303"/>
	<g>
		<polygon fill="#6B7BB7" points="175.973,141.485 219.01,190.677 170.835,146.504 		"/>
	</g>
	<g>
		<polygon fill="#6B7BB7" points="173.271,138.97 250.609,139.686 173.537,146.146 		"/>
	</g>
	<circle fill="#FFFFFF" stroke="#6B7BB7" stroke-width="4.4801" stroke-miterlimit="10" cx="168.736" cy="249.352" r="3.808"/>
</g>
</svg>
